<?xml version="1.0" encoding="utf-8"?>
<!-- Generator: Adobe Illustrator 17.1.0, SVG Export Plug-In . SVG Version: 6.00 Build 0)  -->
<!DOCTYPE svg PUBLIC "-//W3C//DTD SVG 1.1//EN" "http://www.w3.org/Graphics/SVG/1.1/DTD/svg11.dtd">
<svg version="1.1" id="Calque_1" xmlns="http://www.w3.org/2000/svg" xmlns:xlink="http://www.w3.org/1999/xlink" x="0px" y="0px"
	 viewBox="0 0 1190.6 841.9" enable-background="new 0 0 1190.6 841.9" xml:space="preserve">
<path fill="none" stroke="#333333" stroke-width="15" stroke-miterlimit="10" d="M39.1,103.5"/>
<linearGradient id="SVGID_1_" gradientUnits="userSpaceOnUse" x1="10.5" y1="561.89" x2="949.5001" y2="561.89" gradientTransform="matrix(1.2402 0 0 -1.2402 0 1117.7765)">
	<stop  offset="0" style="stop-color:#CC0000"/>
	<stop  offset="0.4069" style="stop-color:#FF9500"/>
	<stop  offset="0.542" style="stop-color:#FDC515"/>
	<stop  offset="0.7838" style="stop-color:#076300"/>
	<stop  offset="0.9684" style="stop-color:#000066"/>
</linearGradient>
<path fill="url(#SVGID_1_)" d="M1152.7,515.8H37.9C24.1,515.8,13,504.7,13,491v-140c0-13.7,11.1-24.9,24.9-24.9h1114.8
	c13.7,0,24.9,11.1,24.9,24.9v140C1177.5,504.7,1166.4,515.8,1152.7,515.8z"/>
<path fill="none" stroke="#666666" stroke-width="9" stroke-miterlimit="10" d="M620.6,568.5h-1.1c-31.2,0-56.5-25.3-56.5-56.5V336
	c0-31.2,25.3-56.5,56.5-56.5h1.1c31.2,0,56.5,25.3,56.5,56.5v176C677.1,543.2,651.8,568.5,620.6,568.5z"/>
</svg>
