<?xml version="1.0" encoding="iso-8859-1"?>
<!-- Generator: Adobe Illustrator 17.1.0, SVG Export Plug-In . SVG Version: 6.00 Build 0)  -->
<!DOCTYPE svg PUBLIC "-//W3C//DTD SVG 1.1//EN" "http://www.w3.org/Graphics/SVG/1.1/DTD/svg11.dtd">
<svg version="1.1" id="Calque_1" xmlns="http://www.w3.org/2000/svg" xmlns:xlink="http://www.w3.org/1999/xlink" x="0px" y="0px"
	 viewBox="0 0 960 560" style="enable-background:new 0 0 960 560;" xml:space="preserve">
<path style="fill:none;stroke:#333333;stroke-width:15;stroke-miterlimit:10;" d="M31.5,24"/>
<path style="fill:#FFFF66;" d="M493.862,139.624c-66.18,0-119.863,43.258-119.863,96.633c0,17.567,6.113,33.905,15.978,48.236
	c29.431,42.758,37.241,66.758,42.056,89.987c4.023,19.47,9.587,23.994,27.833,23.994c7.782,0,20.465,0,33.996,0
	c13.56,0,26.271,0,34.003,0c18.282,0,23.853-4.524,27.869-23.994c4.829-23.241,12.633-47.247,42.056-89.987
	c9.901-14.325,15.978-30.663,15.978-48.236C613.789,182.876,560.106,139.624,493.862,139.624z"/>
<path style="fill:#999999;" d="M536.753,405.47h-85.689c-3.567,0-6.441,2.311-6.441,5.174v3.461c0,2.851,2.875,5.174,6.441,5.174
	h85.689c3.517,0,6.398-2.322,6.398-5.174v-3.461C543.165,407.781,540.27,405.47,536.753,405.47z"/>
<path style="fill:#999999;" d="M536.753,426.182h-85.689c-3.567,0-6.441,2.299-6.441,5.174v3.461c0,2.851,2.875,5.162,6.441,5.162
	h85.689c3.517,0,6.398-2.311,6.398-5.162v-3.461C543.165,428.487,540.27,426.182,536.753,426.182z"/>
<path style="fill:#999999;" d="M536.753,446.9h-85.689c-3.567,0-6.441,2.311-6.441,5.174v3.461c0,2.863,2.875,5.174,6.441,5.174
	h85.689c3.517,0,6.398-2.311,6.398-5.174v-3.461C543.165,449.211,540.27,446.9,536.753,446.9z"/>
<path style="fill:#999999;" d="M461.764,467.612h64.29c0,10.353-17.162,17.257-32.191,17.257
	C478.904,484.869,461.764,477.965,461.764,467.612z"/>
<line style="fill:none;stroke:#FFFF66;stroke-width:17;stroke-miterlimit:10;" x1="401" y1="359" x2="360" y2="390"/>
<line style="fill:none;stroke:#FFFF66;stroke-width:17;stroke-miterlimit:10;" x1="360" y1="279.263" x2="269" y2="310"/>
<line style="fill:none;stroke:#FFFF66;stroke-width:17;stroke-miterlimit:10;" x1="390" y1="145" x2="328" y2="59"/>
<line style="fill:none;stroke:#FFFF66;stroke-width:17;stroke-miterlimit:10;" x1="352" y1="201" x2="254" y2="163"/>
<line style="fill:none;stroke:#FFFF66;stroke-width:17;stroke-miterlimit:10;" x1="493.884" y1="115" x2="493.884" y2="16"/>
<line style="fill:none;stroke:#FFFF66;stroke-width:17;stroke-miterlimit:10;" x1="588" y1="145" x2="643" y2="59"/>
<line style="fill:none;stroke:#FFFF66;stroke-width:17;stroke-miterlimit:10;" x1="631" y1="201" x2="731" y2="163"/>
<line style="fill:none;stroke:#FFFF66;stroke-width:17;stroke-miterlimit:10;" x1="624" y1="280" x2="724" y2="294.632"/>
<line style="fill:none;stroke:#FFFF66;stroke-width:17;stroke-miterlimit:10;" x1="584" y1="359" x2="624" y2="374.5"/>
</svg>
